<svg xmlns="http://www.w3.org/2000/svg" xmlns:xlink="http://www.w3.org/1999/xlink" id="Layer_1" x="0px" y="0px" viewBox="0 0 1940.73 380.44" overflow="visible" xml:space="preserve"><g>	<path fill="#FFFFFF" d="M173.15,95.66h46.2v71.87h92.4V95.66h46.2v189.12h-46.2v-81.86h-92.4v81.86h-46.2V95.66z"></path>	<path fill="#FFFFFF" d="M401.16,208.32V95.66h46.2V209.4c0,27.83,15.67,42.69,48.36,42.69s48.36-14.86,48.36-42.69V95.66h46.2  v112.66c0,52.42-37.28,79.7-94.56,79.7C439.52,288.02,401.16,260.74,401.16,208.32z"></path>	<path fill="#FFFFFF" d="M633.48,95.66h81.86c52.68,0,78.08,20.8,78.08,51.6c0,17.56-10.81,32.96-29.99,38.09  c25.67,5.13,41.34,21.88,41.34,43.77c0,32.96-24.85,55.65-84.29,55.65h-87V95.66z M712.1,128.35h-33.23v43.5h33.23  c24.86,0,37.82-7.83,37.82-22.15C749.93,134.83,736.96,128.35,712.1,128.35z M716.43,203.46h-37.55v48.63h37.55  c28.37,0,41.88-8.1,41.88-24.32C758.3,211.83,744.79,203.46,716.43,203.46z"></path>	<path fill="#FFFFFF" d="M837.72,95.66h135.9v21.07H860.95v65.38h101.31v21.07H860.95v81.59h-23.24V95.66z"></path>	<path fill="#FFFFFF" d="M1001.15,95.66h23.24v168.05h112.39v21.07h-135.63V95.66z"></path>	<path fill="#FFFFFF" d="M1245.38,288.02c-62.95,0-98.88-42.96-98.88-97.8c0-54.85,35.93-97.8,98.88-97.8  c62.41,0,98.34,42.96,98.34,97.8C1343.72,245.06,1307.79,288.02,1245.38,288.02z M1245.38,266.41c45.39,0,74.56-29.45,74.56-76.19  s-29.18-76.19-74.56-76.19c-45.93,0-75.11,29.45-75.11,76.19S1199.45,266.41,1245.38,266.41z"></path>	<path fill="#FFFFFF" d="M1466.9,288.02c-62.95,0-98.88-42.96-98.88-97.8c0-54.85,35.93-97.8,98.88-97.8  c62.41,0,98.34,42.96,98.34,97.8C1565.24,245.06,1529.3,288.02,1466.9,288.02z M1466.9,266.41c45.39,0,74.56-29.45,74.56-76.19  s-29.18-76.19-74.56-76.19c-45.93,0-75.11,29.45-75.11,76.19S1420.97,266.41,1466.9,266.41z"></path>	<path fill="#FFFFFF" d="M1703.01,208.32l64.57,76.46h-28.37l-61.33-73.49h-53.76v73.49h-23.24V95.66h72.95  c48.09,0,79.16,22.16,79.16,57.82C1752.99,181.31,1733.81,200.76,1703.01,208.32z M1671.67,116.73h-47.55v73.49h47.55  c38.9,0,57.55-14.05,57.55-36.74S1710.57,116.73,1671.67,116.73z"></path></g></svg>
