<svg xmlns="http://www.w3.org/2000/svg" id="Layer_1" viewBox="0 0 520.55 516.5"><defs><style>.cls-1{fill:#d6ff01;}.cls-2{fill:#0d0d0d;}</style></defs><rect class="cls-1" width="520.55" height="516.5"></rect><path class="cls-2" d="M389.88,115.98h-70.34c-6.7,0-12.13,5.43-12.13,12.13v76.16c-.48,3.18-3.03,5.68-6.24,6.07h-81.1c-3.83,0-6.93,3.1-6.93,6.93v87.66h0v-7.18c0,3.98-3.23,7.21-7.21,7.21h7.11s-86.31,0-86.31,0c-4.52,0-8.19,3.67-8.19,8.19v78.22c0,4.52,3.67,8.19,8.19,8.19h78.22c4.52,0,8.19-3.67,8.19-8.19v-80.43c.55-3.32,3.36-5.87,6.81-6.01h80.89c3.09.13,5.69,2.2,6.58,5.03v81.05c0,6.7,5.43,12.13,12.13,12.13h70.34c6.7,0,12.13-5.43,12.13-12.13V128.11c0-6.7-5.43-12.13-12.13-12.13Z"></path></svg>